<svg width="184" height="51" viewBox="0 0 184 51" fill="none" xmlns="http://www.w3.org/2000/svg">
<path d="M5.27807 42.6812V51H3.67379V42.6812H1V41H8V42.6812H5.27807Z" fill="white"/>
<path d="M10 41H15.9034V42.6763H11.5993V45.0429H14.8623V46.6612H11.5993V49.3295H16V51H10V41Z" fill="white"/>
<path d="M25 48.2021C24.7462 49.0335 24.2405 49.756 23.5594 50.2604C22.8784 50.7649 22.0588 51.0238 21.2246 50.9983C18.7219 50.9983 17 49.1472 17 46.0043C17 42.8615 18.7059 41.0048 21.2086 41.0048C22.0503 40.9608 22.8811 41.2199 23.5623 41.7389C24.2435 42.2579 24.734 43.0055 24.9519 43.8569L23.4546 44.2875C23.2947 43.7975 22.9922 43.3722 22.5893 43.0713C22.1865 42.7704 21.7036 42.609 21.2086 42.6098C19.6043 42.6098 18.6096 43.8793 18.6096 45.9652C18.6096 48.2021 19.6471 49.3989 21.2086 49.3989C21.6999 49.411 22.1825 49.2616 22.5884 48.9716C22.9942 48.6817 23.3028 48.2658 23.4706 47.7827L25 48.2021Z" fill="white"/>
<path d="M32.3846 51V46.7533H28.6154V51H27V41H28.6154V45.0721H32.3846V41H34V51H32.3846Z" fill="white"/>
<path d="M42.3502 51L38.5316 43.8779H38.4905C38.4905 43.8779 38.4905 45.0058 38.4905 46.1453V51H37V41.0058H38.6087L42.4273 47.9826H42.4581C42.4581 47.9826 42.4581 46.9477 42.4581 45.8721V41H44V50.9942L42.3502 51Z" fill="white"/>
<path d="M46 41H48V51H46V41Z" fill="white"/>
<path d="M58 48.202C57.7453 49.0339 57.239 49.7565 56.5575 50.2609C55.8759 50.7653 55.0562 51.0241 54.2218 50.9982C51.7208 50.9982 50 49.1471 50 46.0041C50 42.8611 51.7047 41.0044 54.2058 41.0044C55.0465 40.9624 55.8758 41.2223 56.5561 41.7411C57.2365 42.2598 57.727 43.0062 57.9466 43.8566L56.4449 44.2872C56.2859 43.7967 55.9837 43.3709 55.581 43.0699C55.1782 42.7688 54.6953 42.6078 54.2004 42.6094C52.5972 42.6094 51.6032 43.8789 51.6032 45.965C51.6032 48.202 52.6399 49.3988 54.2004 49.3988C54.6918 49.4126 55.1748 49.2639 55.5807 48.9737C55.9866 48.6835 56.2946 48.2666 56.4609 47.7825L58 48.202Z" fill="white"/>
<path d="M61.5186 48.6731L60.7904 51H59L62.3601 41H64.6399L68 51H66.1678L65.4397 48.6731H61.5186ZM64.3117 45.1361C63.7626 43.4258 63.5119 42.4951 63.494 42.4602H63.4403C63.4403 42.4951 63.1419 43.4782 62.6048 45.2292L62.008 47.1373H64.9204L64.3117 45.1361Z" fill="white"/>
<path d="M69 41H70.7358V49.3295H75V51H69V41Z" fill="white"/>
<path d="M81.5721 48.0168C81.6697 48.9106 82.3582 49.5754 83.6205 49.5754C84.6303 49.5754 85.2844 49.1341 85.2844 48.2402C85.2844 47.0559 84.1713 46.8827 82.6967 46.4581C81.6065 46.1285 80.2008 45.581 80.2008 43.6927C80.2008 41.9274 81.4344 41 83.4713 41C85.3533 41 86.5984 41.8101 86.9139 43.3855L85.4049 43.7821C85.2213 42.9218 84.6533 42.4246 83.5402 42.4246C82.5361 42.4246 81.9336 42.8547 81.9336 43.6425C81.9336 44.6201 82.7885 44.8603 84.1771 45.2402C85.3246 45.581 87 46.1452 87 48.2067C87 50.1285 85.5943 51 83.609 51C82.0885 51 80.327 50.5028 80 48.4637L81.5721 48.0168Z" fill="white"/>
<path d="M92.5086 41C95.1381 41 97 42.8411 97 46.0028C97 49.1645 95.1381 51 92.5086 51C89.8791 51 88 49.1477 88 46.0028C88 42.8579 89.8619 41 92.5086 41ZM92.5086 49.394C94.147 49.394 95.2584 48.1908 95.2584 45.9916C95.2584 43.7924 94.147 42.5893 92.5086 42.5893C90.8702 42.5893 89.7416 43.7924 89.7416 45.9916C89.7416 48.1908 90.853 49.4052 92.5086 49.4052V49.394Z" fill="white"/>
<path d="M98 41H99.7358V49.3295H104V51H98V41Z" fill="white"/>
<path d="M113 46.8357C113 49.688 111.505 51 109.009 51C106.513 51 105 49.6708 105 46.8357V41H106.809V46.9726C106.809 48.6041 107.49 49.3742 109.003 49.3742C110.516 49.3742 111.191 48.6041 111.191 46.9726V41H113V46.8357Z" fill="white"/>
<path d="M118.889 42.6812V51H117.056V42.6812H114V41H122V42.6812H118.889Z" fill="white"/>
<path d="M123 41H125V51H123V41Z" fill="white"/>
<path d="M130.509 41C133.138 41 135 42.8411 135 46.0028C135 49.1645 133.138 51 130.509 51C127.879 51 126 49.1477 126 46.0028C126 42.8579 127.862 41 130.509 41ZM130.509 49.394C132.147 49.394 133.258 48.1908 133.258 45.9916C133.258 43.7924 132.147 42.5893 130.509 42.5893C128.87 42.5893 127.742 43.7924 127.742 45.9916C127.742 48.1908 128.853 49.4052 130.509 49.4052V49.394Z" fill="white"/>
<path d="M143.142 51L138.758 43.8779H138.711C138.711 43.8779 138.711 45.0058 138.711 46.1453V51H137V41.0058H138.847L143.23 47.9826C143.23 47.9826 143.23 46.9477 143.23 45.8721V41H145V50.9942L143.142 51Z" fill="white"/>
<path d="M147.573 48.0168C147.677 48.9106 148.366 49.5754 149.629 49.5754C150.64 49.5754 151.289 49.1341 151.289 48.2402C151.289 47.0559 150.18 46.8827 148.705 46.4581C147.608 46.1285 146.207 45.581 146.207 43.6927C146.207 41.9274 147.441 41 149.474 41C151.358 41 152.61 41.8101 152.92 43.3855L151.409 43.7821C151.22 42.9218 150.657 42.4246 149.543 42.4246C148.532 42.4246 147.935 42.8547 147.935 43.6425C147.935 44.6201 148.791 44.8603 150.18 45.2402C151.329 45.581 153 46.1452 153 48.2067C153 50.1285 151.599 51 149.612 51C148.09 51 146.327 50.5028 146 48.4637L147.573 48.0168Z" fill="white"/>
<path d="M158 41H160V51H158V41Z" fill="white"/>
<path d="M168.146 51L163.778 43.8779H163.725C163.725 43.8779 163.725 45.0058 163.725 46.1453V51H162V41.0058H163.854L168.228 47.9826H168.263C168.263 47.9826 168.263 46.9477 168.263 45.8721V41H170V50.9942L168.146 51Z" fill="white"/>
<path d="M180 48.2019C179.746 49.0343 179.24 49.7574 178.558 50.262C177.877 50.7665 177.056 51.0249 176.222 50.9981C173.721 50.9981 172 49.147 172 46.004C172 42.8611 173.705 41.0044 176.206 41.0044C177.047 40.9624 177.876 41.2223 178.556 41.7411C179.236 42.2598 179.727 43.0061 179.947 43.8565L178.45 44.2872C178.29 43.7967 177.986 43.3712 177.583 43.0703C177.179 42.7694 176.696 42.6083 176.2 42.6094C174.597 42.6094 173.603 43.8789 173.603 45.9649C173.603 48.2019 174.64 49.3987 176.2 49.3987C176.692 49.4112 177.175 49.2619 177.582 48.972C177.988 48.6821 178.298 48.266 178.466 47.7824L180 48.2019Z" fill="white"/>
<path d="M182.002 50.0042C182.001 49.8064 182.059 49.6128 182.168 49.4478C182.277 49.2829 182.433 49.154 182.615 49.0776C182.797 49.0012 182.998 48.9806 183.193 49.0185C183.387 49.0565 183.565 49.1512 183.705 49.2906C183.846 49.4301 183.941 49.6081 183.98 49.802C184.019 49.9958 184 50.1969 183.924 50.3798C183.849 50.5626 183.721 50.7189 183.557 50.8289C183.392 50.9389 183.199 50.9976 183.001 50.9976C182.868 51.0072 182.734 50.9881 182.609 50.9416C182.484 50.8951 182.37 50.8224 182.275 50.7282C182.181 50.6341 182.107 50.5207 182.06 50.3959C182.013 50.271 181.993 50.1374 182.002 50.0042Z" fill="white"/>
<path d="M0 17.9169C0.0284252 13.9518 1.61637 10.1587 4.41767 7.36443C7.21897 4.5702 11.0065 3.0014 14.9546 3C23.1633 3 30 9.66705 30 17.8713C30 19.1011 29.5125 20.1886 28.4297 20.1886H5.01701C5.45728 22.5375 6.70115 24.6579 8.53344 26.1831C10.3657 27.7083 12.6712 28.5423 15.051 28.5409C16.8087 28.5761 18.5467 28.1639 20.1029 27.3426C21.6592 26.5212 22.9831 25.3176 23.9512 23.8438C23.9866 23.7818 24.0349 23.7281 24.0926 23.6863C24.1504 23.6445 24.2164 23.6157 24.2862 23.6016C24.3561 23.5876 24.428 23.5888 24.4974 23.605C24.5667 23.6212 24.6318 23.6522 24.6882 23.6958L27.4943 25.8707C27.5525 25.9128 27.6011 25.9668 27.6368 26.0292C27.6726 26.0916 27.6946 26.1609 27.7016 26.2326C27.7086 26.3042 27.7003 26.3765 27.6772 26.4447C27.6542 26.5129 27.617 26.5753 27.568 26.6279C26.1315 28.6256 24.2377 30.2472 22.0465 31.356C19.8553 32.4648 17.4308 33.0283 14.9773 32.9989C11.0024 32.9854 7.19466 31.3907 4.38764 28.5641C1.58063 25.7375 0.00297595 21.9091 0 17.9169ZM5.01701 15.742H25.034C24.5518 13.4102 23.2882 11.3148 21.4541 9.80526C19.6199 8.29573 17.3259 7.46324 14.9546 7.4466C12.5927 7.43986 10.3035 8.26689 8.48701 9.78317C6.67054 11.2995 5.44234 13.4086 5.01701 15.742Z" fill="white"/>
<path d="M36.0561 31.4803C36.0561 29.9193 36.1025 28.5549 36.1025 25.9271V11.1148C36.1025 8.04899 36.004 6.10059 36.004 4.1522C35.995 4.08252 36.0013 4.01178 36.0224 3.94461C36.0436 3.87745 36.0791 3.81535 36.1266 3.76237C36.1742 3.7094 36.2328 3.66672 36.2985 3.63714C36.3642 3.60756 36.4356 3.59174 36.5081 3.5907H40.0776C40.1534 3.5871 40.2291 3.59939 40.2996 3.62673C40.37 3.65407 40.4335 3.69582 40.4858 3.74912C40.538 3.80243 40.5778 3.86604 40.6024 3.9356C40.627 4.00516 40.6357 4.07904 40.6282 4.1522V7.24043C41.7753 5.8931 43.2202 4.81267 44.856 4.07892C46.4918 3.34517 48.2769 2.97684 50.0793 3.00113C57.5198 3.00113 61.9469 8.05461 61.9469 14.5511V26.0001C61.9469 28.3864 61.9991 29.9923 61.9991 31.5027C62.0033 31.5679 61.9932 31.6333 61.9693 31.6944C61.9455 31.7556 61.9085 31.8111 61.8608 31.8573C61.8131 31.9035 61.7559 31.9393 61.6928 31.9624C61.6297 31.9855 61.5622 31.9953 61.4949 31.9912H57.5545C57.4818 32.005 57.4068 32.0025 57.3353 31.984C57.2637 31.9654 57.1975 31.9313 57.1416 31.8842C57.0857 31.8371 57.0416 31.7782 57.0128 31.7121C56.9839 31.646 56.971 31.5744 56.975 31.5027C56.975 29.9418 57.0214 28.5773 57.0214 26.0001V14.7196C57.0214 10.0423 54.0082 7.36396 49.5346 7.36396C44.4063 7.36396 40.9353 10.9239 40.9353 15.4046V25.9271C40.9353 28.3134 40.9874 29.9698 40.9874 31.4803C40.9903 31.5516 40.9766 31.6227 40.9474 31.6883C40.9182 31.7539 40.8742 31.8123 40.8185 31.8591C40.7629 31.906 40.6972 31.9402 40.6261 31.9592C40.555 31.9782 40.4805 31.9814 40.408 31.9688H36.4849C36.3613 31.9587 36.2469 31.9017 36.1665 31.8102C36.0862 31.7187 36.0465 31.6001 36.0561 31.4803Z" fill="white"/>
<path d="M68 17.923C68.0394 13.9516 69.6603 10.1562 72.5103 7.36184C75.3603 4.56744 79.2091 2.99996 83.2198 3.00015C85.638 2.98948 88.0228 3.55965 90.1697 4.66177C92.3165 5.76389 94.1615 7.36509 95.5464 9.32812C95.6249 9.42919 95.663 9.55535 95.6534 9.6825C95.6439 9.80964 95.5873 9.92884 95.4946 10.0173L92.6531 12.2956C92.5273 12.3809 92.3723 12.4133 92.2224 12.3855C92.0724 12.3577 91.9398 12.2721 91.8536 12.1475C90.9355 10.7048 89.6618 9.51709 88.1525 8.69606C86.6431 7.87503 84.9477 7.44769 83.2256 7.45422C77.4736 7.45422 72.8432 12.2956 72.8432 17.9287V17.9799C72.8432 23.7099 77.4851 28.5569 83.2256 28.5569C84.9904 28.6039 86.7372 28.1954 88.2943 27.3715C89.8514 26.5477 91.1652 25.3368 92.1067 23.858C92.1482 23.7939 92.2036 23.7397 92.2687 23.6992C92.3338 23.6587 92.4071 23.6329 92.4835 23.6237C92.5598 23.6144 92.6373 23.622 92.7103 23.6457C92.7834 23.6695 92.8503 23.7089 92.9062 23.7611L95.7534 25.8856C95.8141 25.9231 95.8663 25.9724 95.907 26.0305C95.9476 26.0887 95.9758 26.1545 95.9898 26.2239C96.0038 26.2932 96.0034 26.3647 95.9884 26.4339C95.9735 26.503 95.9444 26.5685 95.903 26.6261C94.4622 28.6132 92.5611 30.229 90.3592 31.3381C88.1573 32.4471 85.7189 33.0169 83.2486 32.9996C79.2107 32.9921 75.3401 31.402 72.4827 28.5769C69.6253 25.7517 68.0137 21.9213 68 17.923Z" fill="white"/>
<path d="M137.052 31.5164C137.052 29.992 137.096 28.683 137.096 25.912V9.88649C137.096 7.18346 137.002 5.51178 137.002 3.9421C136.996 3.86846 137.005 3.7943 137.028 3.72451C137.052 3.65473 137.09 3.59093 137.14 3.53734C137.19 3.48375 137.25 3.4416 137.317 3.41368C137.383 3.38577 137.455 3.37273 137.527 3.37542H140.889C140.961 3.37273 141.033 3.38577 141.1 3.41368C141.167 3.4416 141.227 3.48375 141.277 3.53734C141.326 3.59093 141.364 3.65473 141.388 3.72451C141.412 3.7943 141.421 3.86846 141.415 3.9421V6.69046C142.269 5.57522 143.352 4.66686 144.588 4.03016C145.824 3.39347 147.182 3.04413 148.565 3.00709C149.95 2.95685 151.333 3.17407 152.64 3.64742C153.027 3.79476 153.027 4.03843 152.977 4.2141L152.164 7.41013C152.16 7.47599 152.14 7.53992 152.108 7.59722C152.076 7.65452 152.032 7.70373 151.979 7.74124C151.926 7.77874 151.866 7.8036 151.802 7.81396C151.738 7.82433 151.673 7.81994 151.611 7.80113C150.741 7.44874 149.81 7.28102 148.874 7.30813C144.893 7.30813 141.774 10.5552 141.774 15.1282V25.895C141.774 28.3997 141.824 30.026 141.824 31.4994C141.827 31.5714 141.814 31.6431 141.786 31.7093C141.758 31.7755 141.716 31.8344 141.663 31.8817C141.61 31.929 141.547 31.9635 141.479 31.9827C141.411 32.0018 141.34 32.0052 141.271 31.9924H137.527C137.465 31.9964 137.402 31.9869 137.343 31.9646C137.285 31.9422 137.231 31.9075 137.186 31.8626C137.142 31.8178 137.106 31.7638 137.083 31.7041C137.06 31.6445 137.049 31.5805 137.052 31.5164Z" fill="white"/>
<path d="M154 17.9254C154.028 13.958 155.616 10.1627 158.418 7.36692C161.219 4.5711 165.007 3.0014 168.955 3C177.163 3 184 9.67085 184 17.8798C184 19.1103 183.512 20.1984 182.43 20.1984H159.017C159.457 22.5476 160.7 24.6685 162.531 26.1945C164.362 27.7205 166.667 28.5556 169.045 28.5555C170.803 28.5907 172.541 28.1782 174.097 27.3564C175.654 26.5346 176.977 25.3303 177.946 23.8557C177.981 23.7936 178.029 23.7399 178.087 23.6981C178.145 23.6563 178.211 23.6274 178.281 23.6134C178.35 23.5993 178.422 23.6005 178.492 23.6167C178.561 23.633 178.626 23.664 178.683 23.7076L181.517 25.8837C181.574 25.9241 181.622 25.976 181.659 26.036C181.695 26.0961 181.718 26.1631 181.727 26.2327C181.736 26.3023 181.731 26.3731 181.711 26.4405C181.692 26.5079 181.658 26.5705 181.613 26.6243C180.177 28.6231 178.283 30.2457 176.092 31.3551C173.901 32.4645 171.476 33.0283 169.023 32.9989C165.043 32.9974 161.226 31.4096 158.41 28.5837C155.593 25.7579 154.008 21.9248 154 17.9254ZM159.017 15.7493H179.034C178.552 13.4161 177.288 11.3195 175.454 9.80914C173.62 8.29875 171.326 7.46578 168.955 7.44913C166.593 7.44239 164.303 8.26989 162.487 9.78704C160.671 11.3042 159.442 13.4145 159.017 15.7493Z" fill="white"/>
<path d="M120.054 4V8.92335C121.629 9.85711 122.932 11.1829 123.837 12.7704C124.741 14.3579 125.216 16.1525 125.213 17.9778C125.213 23.7273 120.73 28.5375 114.986 28.5375C109.241 28.5375 104.73 23.7273 104.73 18.0287V17.9778C104.737 16.1536 105.22 14.3624 106.131 12.7801C107.043 11.1977 108.351 9.87846 109.929 8.95164V4C106.605 5.18925 103.809 7.5086 102.033 10.5495C100.258 13.5905 99.6165 17.1579 100.222 20.6235C100.828 24.0892 102.643 27.2306 105.346 29.4947C108.049 31.7587 111.468 33 115 33C118.532 33 121.951 31.7587 124.654 29.4947C127.357 27.2306 129.172 24.0892 129.778 20.6235C130.384 17.1579 129.742 13.5905 127.967 10.5495C126.191 7.5086 123.395 5.18925 120.071 4H120.054Z" fill="white"/>
<path d="M117.979 2.67849V14.3215C118.025 14.6561 117.995 14.996 117.892 15.3188C117.788 15.6415 117.613 15.9396 117.379 16.1931C117.144 16.4467 116.855 16.6498 116.531 16.7889C116.207 16.928 115.856 17 115.5 17C115.144 17 114.793 16.928 114.469 16.7889C114.145 16.6498 113.856 16.4467 113.621 16.1931C113.387 15.9396 113.212 15.6415 113.108 15.3188C113.005 14.996 112.975 14.6561 113.021 14.3215V2.67849C112.975 2.34395 113.005 2.00396 113.108 1.68121C113.212 1.35846 113.387 1.06038 113.621 0.806866C113.856 0.553357 114.145 0.350251 114.469 0.211112C114.793 0.0719724 115.144 0 115.5 0C115.856 0 116.207 0.0719724 116.531 0.211112C116.855 0.350251 117.144 0.553357 117.379 0.806866C117.613 1.06038 117.788 1.35846 117.892 1.68121C117.995 2.00396 118.025 2.34395 117.979 2.67849Z" fill="#5ACAEE"/>
</svg>
