<svg width="264" height="73" viewBox="0 0 264 73" fill="none" xmlns="http://www.w3.org/2000/svg">
<path d="M7.8686 61.0927V73H5.57228V61.0927H1.74509V58.6863H11.7647V61.0927H7.8686Z" fill="white"/>
<path d="M14.6274 58.6863H23.0774V61.0857H16.9166V64.4732H21.5871V66.7896H16.9166V70.6088H23.2157V73H14.6274V58.6863Z" fill="white"/>
<path d="M36.098 68.9952C35.7347 70.1853 35.0109 71.2194 34.036 71.9414C33.0612 72.6634 31.8881 73.0341 30.694 72.9975C27.1118 72.9975 24.647 70.348 24.647 65.8494C24.647 61.3507 27.0888 58.6932 30.6711 58.6932C31.876 58.6301 33.0651 59.001 34.0401 59.7439C35.0152 60.4868 35.7172 61.5568 36.0291 62.7756L33.8859 63.3919C33.6572 62.6905 33.2241 62.0817 32.6475 61.651C32.0708 61.2203 31.3797 60.9893 30.6711 60.9905C28.3747 60.9905 26.951 62.8076 26.951 65.7933C26.951 68.9952 28.436 70.7082 30.6711 70.7082C31.3744 70.7256 32.0652 70.5117 32.6461 70.0966C33.227 69.6816 33.6687 69.0864 33.9089 68.3948L36.098 68.9952Z" fill="white"/>
<path d="M46.6682 73V66.9215H41.273V73H38.9608V58.6863H41.273V64.515H46.6682V58.6863H48.9804V73H46.6682Z" fill="white"/>
<path d="M60.9327 73L55.4668 62.8056H55.4079C55.4079 62.8056 55.4079 64.4201 55.4079 66.0512V73H53.2745V58.6946H55.5771L61.043 68.6809H61.0872C61.0872 68.6809 61.0872 67.1996 61.0872 65.6601V58.6863H63.2941V72.9917L60.9327 73Z" fill="white"/>
<path d="M66.1569 58.6863H69.0196V73H66.1569V58.6863Z" fill="white"/>
<path d="M83.3333 68.995C82.9688 70.1857 82.2441 71.2201 81.2685 71.9421C80.293 72.6641 79.1196 73.0345 77.9253 72.9975C74.3454 72.9975 71.8823 70.3478 71.8823 65.849C71.8823 61.3502 74.3225 58.6926 77.9023 58.6926C79.1058 58.6325 80.2928 59.0045 81.2666 59.747C82.2404 60.4895 82.9426 61.5579 83.2569 62.7751L81.1074 63.3915C80.8798 62.6894 80.4472 62.0799 79.8708 61.649C79.2943 61.2181 78.6031 60.9876 77.8947 60.99C75.5999 60.99 74.1771 62.8071 74.1771 65.793C74.1771 68.995 75.6611 70.708 77.8947 70.708C78.598 70.7279 79.2894 70.5149 79.8704 70.0995C80.4514 69.6842 80.8923 69.0875 81.1303 68.3946L83.3333 68.995Z" fill="white"/>
<path d="M88.3697 69.6693L87.3275 73H84.7647L89.5742 58.6863H92.8375L97.6471 73H95.0245L93.9822 69.6693H88.3697ZM92.3677 64.6066C91.5818 62.1585 91.223 60.8263 91.1973 60.7763H91.1204C91.1204 60.8263 90.6933 62.2335 89.9245 64.7398L89.0702 67.471H93.239L92.3677 64.6066Z" fill="white"/>
<path d="M99.0784 58.6863H101.563V70.6088H107.667V73H99.0784V58.6863Z" fill="white"/>
<path d="M117.074 68.7299C117.213 70.0093 118.199 70.9609 120.006 70.9609C121.451 70.9609 122.388 70.3292 122.388 69.0497C122.388 67.3545 120.794 67.1066 118.684 66.4989C117.123 66.0271 115.111 65.2434 115.111 62.5406C115.111 60.0137 116.877 58.6863 119.792 58.6863C122.486 58.6863 124.268 59.8458 124.72 62.1008L122.56 62.6685C122.297 61.4371 121.484 60.7254 119.891 60.7254C118.454 60.7254 117.591 61.3411 117.591 62.4686C117.591 63.868 118.815 64.2119 120.802 64.7556C122.445 65.2434 124.843 66.051 124.843 69.0018C124.843 71.7526 122.831 73 119.989 73C117.813 73 115.292 72.2883 114.824 69.3696L117.074 68.7299Z" fill="white"/>
<path d="M132.728 58.6863C136.492 58.6863 139.157 61.3215 139.157 65.8472C139.157 70.3728 136.492 73 132.728 73C128.964 73 126.275 70.3487 126.275 65.8472C126.275 61.3456 128.94 58.6863 132.728 58.6863ZM132.728 70.7012C135.073 70.7012 136.664 68.979 136.664 65.8311C136.664 62.6832 135.073 60.9611 132.728 60.9611C130.383 60.9611 128.767 62.6832 128.767 65.8311C128.767 68.979 130.358 70.7172 132.728 70.7172V70.7012Z" fill="white"/>
<path d="M140.588 58.6863H143.073V70.6088H149.176V73H140.588V58.6863Z" fill="white"/>
<path d="M162.059 67.0394C162.059 71.122 159.919 73 156.346 73C152.774 73 150.608 71.0975 150.608 67.0394V58.6863H153.197V67.2353C153.197 69.5706 154.172 70.6729 156.338 70.6729C158.504 70.6729 159.47 69.5706 159.47 67.2353V58.6863H162.059V67.0394Z" fill="white"/>
<path d="M170.488 61.0927V73H167.864V61.0927H163.49V58.6863H174.941V61.0927H170.488Z" fill="white"/>
<path d="M176.373 58.6863H179.235V73H176.373V58.6863Z" fill="white"/>
<path d="M187.12 58.6863C190.884 58.6863 193.549 61.3215 193.549 65.8472C193.549 70.3728 190.884 73 187.12 73C183.356 73 180.667 70.3487 180.667 65.8472C180.667 61.3456 183.332 58.6863 187.12 58.6863ZM187.12 70.7012C189.465 70.7012 191.056 68.979 191.056 65.8311C191.056 62.6832 189.465 60.9611 187.12 60.9611C184.775 60.9611 183.16 62.6832 183.16 65.8311C183.16 68.979 184.75 70.7172 187.12 70.7172V70.7012Z" fill="white"/>
<path d="M205.203 73L198.928 62.8056H198.861C198.861 62.8056 198.861 64.4201 198.861 66.0512V73H196.412V58.6946H199.055L205.329 68.6809C205.329 68.6809 205.329 67.1996 205.329 65.6601V58.6863H207.863V72.9917L205.203 73Z" fill="white"/>
<path d="M211.546 68.7299C211.694 70.0093 212.681 70.9609 214.489 70.9609C215.935 70.9609 216.864 70.3292 216.864 69.0497C216.864 67.3545 215.278 67.1066 213.166 66.4989C211.596 66.0271 209.59 65.2434 209.59 62.5406C209.59 60.0137 211.357 58.6863 214.267 58.6863C216.963 58.6863 218.755 59.8458 219.199 62.1008L217.037 62.6685C216.766 61.4371 215.96 60.7254 214.366 60.7254C212.919 60.7254 212.064 61.3411 212.064 62.4686C212.064 63.868 213.289 64.2119 215.278 64.7556C216.922 65.2434 219.314 66.051 219.314 69.0018C219.314 71.7526 217.308 73 214.464 73C212.286 73 209.763 72.2883 209.294 69.3696L211.546 68.7299Z" fill="white"/>
<path d="M226.471 58.6863H229.333V73H226.471V58.6863Z" fill="white"/>
<path d="M240.993 73L234.741 62.8056H234.665C234.665 62.8056 234.665 64.4201 234.665 66.0512V73H232.196V58.6946H234.85L241.111 68.6809H241.161C241.161 68.6809 241.161 67.1996 241.161 65.6601V58.6863H243.647V72.9917L240.993 73Z" fill="white"/>
<path d="M257.961 68.9949C257.597 70.1863 256.873 71.2214 255.897 71.9436C254.921 72.6658 253.747 73.0357 252.553 72.9973C248.973 72.9973 246.51 70.3477 246.51 65.8489C246.51 61.3502 248.95 58.6926 252.53 58.6926C253.733 58.6325 254.92 59.0045 255.894 59.747C256.868 60.4895 257.57 61.5578 257.884 62.775L255.743 63.3914C255.513 62.6894 255.078 62.0803 254.501 61.6497C253.923 61.219 253.231 60.9883 252.522 60.99C250.227 60.99 248.805 62.8071 248.805 65.7929C248.805 68.9949 250.289 70.7079 252.522 70.7079C253.226 70.7258 253.918 70.5122 254.499 70.0972C255.081 69.6822 255.524 69.0867 255.765 68.3945L257.961 68.9949Z" fill="white"/>
<path d="M260.826 71.5747C260.825 71.2916 260.908 71.0144 261.064 70.7783C261.22 70.5422 261.443 70.3577 261.704 70.2483C261.965 70.1389 262.253 70.1095 262.531 70.1638C262.808 70.2181 263.064 70.3536 263.265 70.5533C263.465 70.7529 263.602 71.0076 263.658 71.2852C263.714 71.5627 263.686 71.8505 263.578 72.1122C263.47 72.3739 263.287 72.5977 263.052 72.7551C262.816 72.9125 262.54 72.9966 262.256 72.9966C262.066 73.0103 261.874 72.9829 261.695 72.9164C261.516 72.8499 261.353 72.7457 261.218 72.611C261.082 72.4762 260.977 72.314 260.91 72.1353C260.842 71.9565 260.814 71.7653 260.826 71.5747Z" fill="white"/>
<path d="M0.313721 25.6458C0.354408 19.9702 2.62734 14.5408 6.63705 10.5412C10.6468 6.54166 16.0681 4.29612 21.7194 4.29411C33.469 4.29411 43.2549 13.8372 43.2549 25.5806C43.2549 27.3408 42.557 28.8974 41.0072 28.8974H7.49493C8.12511 32.2595 9.90556 35.2946 12.5283 37.4778C15.151 39.6609 18.4509 40.8547 21.8573 40.8527C24.3733 40.9031 26.8609 40.313 29.0885 39.1374C31.3161 37.9618 33.2111 36.2389 34.5969 34.1294C34.6475 34.0406 34.7166 33.9637 34.7993 33.9039C34.882 33.8441 34.9765 33.8028 35.0764 33.7827C35.1763 33.7626 35.2794 33.7643 35.3786 33.7875C35.4778 33.8108 35.571 33.8551 35.6518 33.9175L39.6683 37.0306C39.7516 37.0908 39.8211 37.1681 39.8723 37.2575C39.9235 37.3468 39.9551 37.446 39.9651 37.5486C39.975 37.6511 39.9631 37.7546 39.9302 37.8522C39.8972 37.9498 39.8439 38.0392 39.7738 38.1145C37.7176 40.9739 35.007 43.2951 31.8705 44.8821C28.734 46.4692 25.2637 47.2757 21.7519 47.2337C16.0622 47.2143 10.612 44.9319 6.59408 40.8859C2.5762 36.8399 0.31798 31.3601 0.313721 25.6458ZM7.49493 22.5327H36.1467C35.4564 19.1949 33.6479 16.1957 31.0225 14.035C28.3971 11.8743 25.1136 10.6827 21.7194 10.6589C18.3386 10.6492 15.0618 11.833 12.4618 14.0034C9.86175 16.1737 8.10374 19.1927 7.49493 22.5327Z" fill="white"/>
<path d="M51.9234 45.06C51.9234 42.8257 51.9898 40.8726 51.9898 37.1113V15.9094C51.9898 11.5211 51.8488 8.73222 51.8488 5.94334C51.836 5.8436 51.845 5.74235 51.8752 5.64621C51.9055 5.55007 51.9563 5.46119 52.0244 5.38535C52.0925 5.30952 52.1763 5.24844 52.2704 5.2061C52.3645 5.16376 52.4667 5.14111 52.5704 5.13963H57.6798C57.7882 5.13447 57.8966 5.15206 57.9974 5.1912C58.0982 5.23033 58.1891 5.29009 58.264 5.36639C58.3388 5.44269 58.3957 5.53374 58.4309 5.63331C58.466 5.73288 58.4786 5.83863 58.4677 5.94334V10.3638C60.1098 8.43522 62.1779 6.88873 64.5194 5.83845C66.8609 4.78818 69.416 4.26096 71.9959 4.29573C82.6459 4.29573 88.9828 11.5291 88.9828 20.8281V37.2158C88.9828 40.6315 89.0575 42.9302 89.0575 45.0921C89.0635 45.1855 89.0491 45.279 89.0149 45.3665C88.9808 45.454 88.9279 45.5335 88.8596 45.5996C88.7914 45.6658 88.7094 45.7171 88.6191 45.7501C88.5288 45.7832 88.4322 45.7973 88.3359 45.7914H82.6957C82.5916 45.8111 82.4843 45.8075 82.3819 45.781C82.2794 45.7544 82.1846 45.7056 82.1046 45.6381C82.0246 45.5707 81.9616 45.4865 81.9203 45.3919C81.8789 45.2972 81.8605 45.1947 81.8662 45.0921C81.8662 42.8578 81.9326 40.9048 81.9326 37.2158V21.0692C81.9326 14.3743 77.6195 10.5406 71.2162 10.5406C63.8757 10.5406 58.9073 15.6361 58.9073 22.0497V37.1113C58.9073 40.5271 58.982 42.898 58.982 45.06C58.9861 45.1621 58.9666 45.2639 58.9247 45.3578C58.8829 45.4516 58.8199 45.5352 58.7403 45.6023C58.6607 45.6694 58.5665 45.7183 58.4648 45.7455C58.3631 45.7726 58.2564 45.7773 58.1526 45.7592H52.5372C52.3603 45.7449 52.1965 45.6633 52.0815 45.5323C51.9665 45.4013 51.9097 45.2315 51.9234 45.06Z" fill="white"/>
<path d="M97.647 25.6545C97.7035 19.97 100.024 14.5374 104.103 10.5375C108.182 6.5377 113.691 4.29405 119.432 4.29432C122.894 4.27906 126.307 5.09518 129.38 6.67273C132.453 8.25028 135.094 10.5422 137.076 13.352C137.189 13.4967 137.243 13.6773 137.229 13.8593C137.216 14.0412 137.135 14.2119 137.002 14.3385L132.935 17.5996C132.755 17.7217 132.533 17.768 132.318 17.7283C132.104 17.6885 131.914 17.566 131.79 17.3876C130.476 15.3226 128.653 13.6225 126.493 12.4473C124.332 11.2721 121.905 10.6604 119.441 10.6698C111.207 10.6698 104.579 17.5996 104.579 25.6626V25.736C104.579 33.9376 111.224 40.8756 119.441 40.8756C121.967 40.9428 124.467 40.3581 126.696 39.1788C128.924 37.9996 130.805 36.2664 132.153 34.1496C132.212 34.0579 132.291 33.9803 132.385 33.9224C132.478 33.8644 132.583 33.8275 132.692 33.8143C132.801 33.801 132.912 33.8118 133.017 33.8458C133.121 33.8798 133.217 33.9362 133.297 34.011L137.373 37.052C137.459 37.1055 137.534 37.1761 137.592 37.2594C137.651 37.3426 137.691 37.4368 137.711 37.5361C137.731 37.6354 137.73 37.7377 137.709 37.8367C137.688 37.9357 137.646 38.0294 137.587 38.1118C135.524 40.9561 132.803 43.269 129.651 44.8564C126.5 46.4438 123.009 47.2594 119.473 47.2347C113.694 47.224 108.153 44.948 104.063 40.9041C99.9735 36.8603 97.6666 31.3776 97.647 25.6545Z" fill="white"/>
<path d="M196.486 45.1117C196.486 42.9298 196.549 41.0561 196.549 37.0897V14.1512C196.549 10.2822 196.415 7.8894 196.415 5.6426C196.406 5.53721 196.418 5.43105 196.452 5.33116C196.487 5.23128 196.541 5.13995 196.612 5.06325C196.683 4.98654 196.769 4.92621 196.865 4.88625C196.961 4.84629 197.063 4.82763 197.166 4.83148H201.979C202.082 4.82763 202.185 4.84629 202.28 4.88625C202.376 4.92621 202.462 4.98654 202.533 5.06325C202.604 5.13995 202.659 5.23128 202.693 5.33116C202.727 5.43105 202.74 5.53721 202.731 5.6426V9.57653C203.953 7.98022 205.504 6.68001 207.273 5.76866C209.042 4.85731 210.986 4.35728 212.965 4.30425C214.948 4.23236 216.927 4.54328 218.798 5.22082C219.352 5.43171 219.352 5.78049 219.281 6.03194L218.118 10.6066C218.111 10.7009 218.083 10.7924 218.038 10.8744C217.992 10.9565 217.928 11.0269 217.853 11.0806C217.777 11.1343 217.69 11.1698 217.599 11.1847C217.508 11.1995 217.414 11.1932 217.326 11.1663C216.08 10.6619 214.747 10.4218 213.408 10.4606C207.709 10.4606 203.245 15.1084 203.245 21.6541V37.0654C203.245 40.6505 203.316 42.9784 203.316 45.0873C203.32 45.1904 203.302 45.2931 203.262 45.3879C203.222 45.4826 203.162 45.5669 203.086 45.6346C203.01 45.7023 202.92 45.7517 202.823 45.7791C202.726 45.8066 202.624 45.8113 202.525 45.793H197.166C197.077 45.7987 196.987 45.7852 196.903 45.7532C196.819 45.7212 196.743 45.6715 196.678 45.6073C196.614 45.5431 196.564 45.4658 196.531 45.3804C196.498 45.2951 196.482 45.2035 196.486 45.1117Z" fill="white"/>
<path d="M220.745 25.6579C220.786 19.9791 223.059 14.5467 227.068 10.5448C231.078 6.54294 236.5 4.29612 242.151 4.29411C253.9 4.29411 263.686 13.8426 263.686 25.5927C263.686 27.354 262.988 28.9114 261.439 28.9114H227.926C228.556 32.2741 230.336 35.3099 232.957 37.4941C235.578 39.6783 238.876 40.8736 242.281 40.8735C244.797 40.924 247.284 40.3335 249.512 39.1572C251.739 37.981 253.634 36.2571 255.02 34.1464C255.071 34.0575 255.14 33.9806 255.223 33.9208C255.305 33.8609 255.4 33.8196 255.5 33.7995C255.6 33.7794 255.703 33.7811 255.802 33.8043C255.901 33.8276 255.994 33.8719 256.075 33.9344L260.132 37.0492C260.214 37.107 260.283 37.1813 260.335 37.2673C260.387 37.3533 260.42 37.4491 260.433 37.5488C260.446 37.6484 260.438 37.7497 260.41 37.8462C260.382 37.9427 260.334 38.0323 260.27 38.1093C258.214 40.9704 255.503 43.2928 252.367 44.8808C249.23 46.4688 245.76 47.2758 242.248 47.2337C236.551 47.2316 231.088 44.9588 227.057 40.9139C223.026 36.8691 220.756 31.3825 220.745 25.6579ZM227.926 22.543H256.578C255.888 19.2034 254.079 16.2025 251.454 14.0405C248.828 11.8786 245.545 10.6863 242.151 10.6625C238.77 10.6528 235.493 11.8373 232.893 14.0089C230.293 16.1805 228.535 19.2012 227.926 22.543Z" fill="white"/>
<path d="M172.156 5.72549V12.7726C174.41 14.1092 176.276 16.0069 177.57 18.2792C178.865 20.5515 179.544 23.1202 179.54 25.7329C179.54 33.9627 173.123 40.8478 164.901 40.8478C156.679 40.8478 150.222 33.9627 150.222 25.8058V25.7329C150.232 23.1218 150.923 20.558 152.227 18.2931C153.532 16.0281 155.405 14.1398 157.663 12.8131V5.72549C152.905 7.42776 148.903 10.7476 146.361 15.1003C143.82 19.453 142.902 24.5594 143.769 29.52C144.637 34.4806 147.234 38.9772 151.103 42.2178C154.973 45.4585 159.866 47.2353 164.922 47.2353C169.977 47.2353 174.87 45.4585 178.74 42.2178C182.609 38.9772 185.206 34.4806 186.074 29.52C186.941 24.5594 186.023 19.453 183.482 15.1003C180.94 10.7476 176.938 7.42776 172.18 5.72549H172.156Z" fill="white"/>
<path d="M169.186 3.83392V20.4994C169.251 20.9783 169.209 21.4649 169.061 21.9269C168.912 22.3889 168.662 22.8156 168.326 23.1784C167.99 23.5413 167.577 23.832 167.113 24.0312C166.649 24.2303 166.146 24.3333 165.637 24.3333C165.128 24.3333 164.625 24.2303 164.161 24.0312C163.698 23.832 163.284 23.5413 162.948 23.1784C162.612 22.8156 162.362 22.3889 162.214 21.9269C162.066 21.4649 162.023 20.9783 162.089 20.4994V3.83392C162.023 3.35507 162.066 2.86841 162.214 2.40643C162.362 1.94446 162.612 1.51779 162.948 1.15493C163.284 0.79206 163.698 0.501339 164.161 0.302179C164.625 0.103019 165.128 0 165.637 0C166.146 0 166.649 0.103019 167.113 0.302179C167.577 0.501339 167.99 0.79206 168.326 1.15493C168.662 1.51779 168.912 1.94446 169.061 2.40643C169.209 2.86841 169.251 3.35507 169.186 3.83392Z" fill="#5ACAEE"/>
</svg>
