<svg width="31" height="31" viewBox="0 0 31 31" fill="none" xmlns="http://www.w3.org/2000/svg">
<circle cx="15.5" cy="15.5" r="15.5" fill="#5ACAEE"/>
<path d="M13.1042 18.2737V20.9792C13.1042 21.1682 13.2255 21.3356 13.4052 21.3951C13.4501 21.4097 13.4962 21.4167 13.5417 21.4167C13.6782 21.4167 13.81 21.3525 13.894 21.2382L15.4766 19.0845L13.1042 18.2737Z" fill="white"/>
<path d="M21.8158 8.08025C21.6817 7.98517 21.5055 7.97233 21.3597 8.04875L8.23465 14.9029C8.07948 14.984 7.9879 15.1497 8.00073 15.3241C8.01415 15.4991 8.13023 15.6484 8.29532 15.705L11.9441 16.9522L19.7147 10.308L13.7017 17.5524L19.8167 19.6425C19.8622 19.6577 19.9101 19.6658 19.9579 19.6658C20.0372 19.6658 20.116 19.6442 20.1854 19.6022C20.2962 19.5346 20.3715 19.4208 20.3907 19.2931L21.9949 8.50142C22.0188 8.33808 21.95 8.17592 21.8158 8.08025Z" fill="white"/>
</svg>
