<svg width="62" height="62" viewBox="0 0 62 62" fill="none" xmlns="http://www.w3.org/2000/svg">
<path d="M59.8304 28.583C59.2528 26.7223 57.4911 25.4799 55.5434 25.5579L55.1279 25.575C53.9093 25.6246 52.7631 26.127 51.9045 26.9855L45.4822 33.3404C45.33 33.1081 45.1554 32.8871 44.9568 32.6809C44.1124 31.8036 42.9296 31.3009 41.7121 31.3009H32.6531C30.9438 31.3009 29.2771 31.0792 27.6984 30.6424C23.5867 29.5044 19.6633 30.326 16.3523 33.0183C14.9556 34.1546 13.9516 35.3945 13.3357 36.2708C12.6382 35.7859 11.8084 35.5315 10.9478 35.546C9.85614 35.5648 8.83796 36.0076 8.08124 36.7941L2.22581 42.8723C1.79335 43.3211 1.80222 44.0345 2.24639 44.4727L6.95521 49.1173C7.40257 49.5583 8.12381 49.5537 8.5655 49.1059C9.00647 48.6582 9.00186 47.9377 8.55415 47.496L4.64639 43.6418L9.72097 38.3735C10.0548 38.0269 10.5043 37.8311 10.9857 37.8233C11.4717 37.8144 11.9227 37.9953 12.2686 38.3306L21.3226 47.1168C21.6677 47.452 21.8618 47.9012 21.8685 48.3822C21.8753 48.8636 21.694 49.3181 21.358 49.6629L16.3714 54.7794L15.0882 53.5572C14.6327 53.1233 13.9122 53.1411 13.4783 53.5966C13.0451 54.0521 13.0629 54.7726 13.5184 55.2058L15.6161 57.2042C15.8368 57.4139 16.1192 57.5182 16.4012 57.5182C16.6978 57.5182 16.9937 57.4029 17.2168 57.1744L22.9889 51.2519C23.7499 50.4714 24.1603 49.4408 24.1454 48.351C24.1383 47.8525 24.0419 47.369 23.8652 46.9184L25.8983 46.6818C26.8417 46.5722 27.8013 46.5161 28.751 46.5161H42.5348C42.7459 46.5161 42.9594 46.5073 43.1698 46.4895L44.4906 46.3796C45.8295 46.2685 47.1198 45.8038 48.2228 45.0368C48.7641 44.66 49.2551 44.2144 49.6823 43.7117L58.9704 32.7842C59.9631 31.6166 60.2841 30.0464 59.8304 28.583ZM57.2356 31.3094L47.9471 42.2369C47.6473 42.5896 47.3025 42.9025 46.9222 43.1671C46.1477 43.706 45.2413 44.0321 44.3019 44.1105L42.9804 44.2204C42.8331 44.2329 42.6827 44.2392 42.5348 44.2392H28.751C27.7137 44.2392 26.6653 44.2999 25.6355 44.4195L22.3432 44.8026L15.0599 37.7796C15.5558 37.0446 16.4672 35.8596 17.7891 34.7851C20.5428 32.5461 23.6722 31.8905 27.0911 32.8367C28.8674 33.3284 30.7388 33.5774 32.6531 33.5774H41.7121C42.3141 33.5774 42.8991 33.8265 43.317 34.26C43.6225 34.5772 43.8162 34.966 43.896 35.3736C43.8946 35.4765 43.9074 35.579 43.934 35.6787C43.9641 36.2126 43.8041 36.7569 43.4487 37.1992L43.4135 37.2432C42.9889 37.7726 42.3556 38.0766 41.6766 38.0766H33.7901C33.1611 38.0766 32.6517 38.586 32.6517 39.2147C32.6517 39.8437 33.1611 40.3535 33.7901 40.3535H41.6766C43.0499 40.3535 44.3303 39.739 45.1899 38.6673L45.225 38.6236C45.8834 37.8034 46.2098 36.8108 46.213 35.8203L53.5099 28.5997C53.9675 28.1424 54.5749 27.876 55.2209 27.8497L55.6367 27.833C56.5548 27.794 57.3839 28.3812 57.6557 29.2578C57.8774 29.9723 57.7202 30.7393 57.2356 31.3094Z" fill="#5ACAEE"/>
<path d="M10.9602 40.2242C9.26011 40.2242 7.87723 41.6075 7.87723 43.3072C7.87723 45.0076 9.26011 46.3908 10.9602 46.3908C12.6602 46.3908 14.0434 45.0076 14.0434 43.3072C14.0434 41.6075 12.6602 40.2242 10.9602 40.2242ZM10.9602 44.1136C10.5156 44.1136 10.1538 43.7521 10.1538 43.3072C10.1538 42.863 10.5156 42.5015 10.9602 42.5015C11.4043 42.5015 11.7662 42.863 11.7662 43.3072C11.7662 43.7521 11.4043 44.1136 10.9602 44.1136Z" fill="#5ACAEE"/>
<path d="M28.9525 38.2444L28.894 38.2582C28.282 38.4019 27.9017 39.0149 28.0461 39.6269C28.1688 40.1513 28.6368 40.5053 29.1533 40.5053C29.2392 40.5053 29.3271 40.495 29.4144 40.4744L29.4733 40.461C30.0853 40.3173 30.4649 39.7043 30.3212 39.0923C30.1775 38.4803 29.5648 38.1014 28.9525 38.2444Z" fill="#5ACAEE"/>
<path d="M10.8136 50.2937L10.7547 50.3075C10.1428 50.4516 9.76317 51.0639 9.90685 51.6759C10.03 52.2006 10.4975 52.5543 11.0141 52.5543C11.1006 52.5543 11.1879 52.5447 11.2759 52.5241L11.3344 52.5106C11.9464 52.367 12.3264 51.7539 12.1823 51.142C12.0387 50.5296 11.4256 50.1504 10.8136 50.2937Z" fill="#5ACAEE"/>
<path d="M35.2283 28.3598C41.8724 28.3598 47.2776 22.9546 47.2776 16.3105C47.2776 9.66645 41.8724 4.26086 35.2283 4.26086C32.503 4.26086 29.9324 5.14849 27.7942 6.82725C27.3057 7.2104 26.8434 7.6347 26.4198 8.0888C25.7862 8.76747 25.231 9.51922 24.7701 10.3221C23.7289 12.1367 23.179 14.2078 23.179 16.3105C23.179 22.9546 28.5842 28.3598 35.2283 28.3598ZM26.7451 11.4552C27.1191 10.8035 27.5693 10.1936 28.084 9.64268C28.4278 9.27372 28.8035 8.9296 29.1998 8.61847C30.9339 7.25758 33.0185 6.53811 35.2283 6.53811C40.6165 6.53811 45.0007 10.9216 45.0007 16.3105C45.0007 21.6991 40.6165 26.0829 35.2283 26.0829C29.8398 26.0829 25.4556 21.6991 25.4556 16.3105C25.4556 14.6044 25.9015 12.9257 26.7451 11.4552Z" fill="#5ACAEE"/>
<path d="M36.238 20.2073C35.779 20.4801 35.1826 20.577 34.7782 20.577C34.0104 20.577 33.3374 19.6723 33.3374 18.6414C33.3374 18.0127 32.8276 17.5029 32.199 17.5029C31.57 17.5029 31.0605 18.0127 31.0605 18.6414C31.0605 20.6132 32.2618 22.2721 33.8788 22.7287C33.9157 23.3243 34.4088 23.7965 35.0137 23.7965C35.6349 23.7965 36.139 23.2988 36.1511 22.6801C37.7954 22.2533 39.2145 21.029 39.2145 18.8894C39.2145 16.3241 36.5949 14.9245 35.2496 14.9245C35.2326 14.9245 33.5613 14.7759 33.5613 13.7069C33.5613 12.0654 35.2326 12.0193 35.2496 12.0193C35.5661 12.0193 35.951 12.2073 36.2543 12.5107C36.4001 12.6568 36.4158 12.6721 36.4158 13.2858C36.4158 13.9145 36.9259 14.4218 37.5542 14.4218C38.1829 14.4218 38.693 13.9102 38.693 13.2812C38.693 12.5536 38.693 11.7291 37.8646 10.9004C37.3665 10.403 36.7698 10.0489 36.149 9.87226C36.1142 9.27448 35.6204 8.7998 35.0137 8.7998C34.3851 8.7998 33.8753 9.30996 33.8753 9.93861V10.0131C32.6315 10.4754 31.2844 11.5801 31.2844 13.7069C31.2844 16.3155 33.9959 17.1975 35.2415 17.201C35.5835 17.2287 36.9373 17.8283 36.9373 18.889C36.9373 19.5134 36.7219 19.9196 36.238 20.2073Z" fill="#5ACAEE"/>
</svg>
