<svg width="52" height="52" viewBox="0 0 52 52" fill="none" xmlns="http://www.w3.org/2000/svg">
<path d="M32.0938 33.5156C32.0938 30.1555 29.3601 27.4219 26 27.4219C22.6399 27.4219 19.9062 30.1555 19.9062 33.5156C19.9062 36.8757 22.6399 39.6094 26 39.6094C29.3601 39.6094 32.0938 36.8757 32.0938 33.5156ZM26 36.5625C24.32 36.5625 22.9531 35.1957 22.9531 33.5156C22.9531 31.8356 24.32 30.4688 26 30.4688C27.68 30.4688 29.0469 31.8356 29.0469 33.5156C29.0469 35.1957 27.68 36.5625 26 36.5625Z" fill="#5ACAEE"/>
<path d="M47.3281 33.5156C47.3281 30.1555 44.5945 27.4219 41.2344 27.4219C37.8743 27.4219 35.1406 30.1555 35.1406 33.5156C35.1406 36.8757 37.8743 39.6094 41.2344 39.6094C44.5945 39.6094 47.3281 36.8757 47.3281 33.5156ZM41.2344 36.5625C39.5543 36.5625 38.1875 35.1957 38.1875 33.5156C38.1875 31.8356 39.5543 30.4688 41.2344 30.4688C42.9144 30.4688 44.2812 31.8356 44.2812 33.5156C44.2812 35.1957 42.9144 36.5625 41.2344 36.5625Z" fill="#5ACAEE"/>
<path d="M47.4297 39.6094H4.57031C2.05024 39.6094 0 41.6596 0 44.1797V52H52V44.1797C52 41.6596 49.9498 39.6094 47.4297 39.6094ZM3.04688 48.9531V44.1797C3.04688 43.3397 3.73029 42.6562 4.57031 42.6562H15.598C15.4289 43.1331 15.3359 43.6457 15.3359 44.1797V48.9531H3.04688ZM33.6172 48.9531H18.3828V44.1797C18.3828 43.3397 19.0662 42.6562 19.9062 42.6562H24.4766V45.7031H27.5234V42.6562H32.0938C32.9338 42.6562 33.6172 43.3397 33.6172 44.1797V48.9531ZM48.9531 48.9531H36.6641V44.1797C36.6641 43.6457 36.5711 43.1331 36.402 42.6562H47.4297C48.2697 42.6562 48.9531 43.3397 48.9531 44.1797V48.9531Z" fill="#5ACAEE"/>
<path d="M16.8594 33.5156C16.8594 30.1555 14.1257 27.4219 10.7656 27.4219C7.40553 27.4219 4.67188 30.1555 4.67188 33.5156C4.67188 36.8757 7.40553 39.6094 10.7656 39.6094C14.1257 39.6094 16.8594 36.8757 16.8594 33.5156ZM10.7656 36.5625C9.08558 36.5625 7.71875 35.1957 7.71875 33.5156C7.71875 31.8356 9.08558 30.4688 10.7656 30.4688C12.4457 30.4688 13.8125 31.8356 13.8125 33.5156C13.8125 35.1957 12.4457 36.5625 10.7656 36.5625Z" fill="#5ACAEE"/>
<path d="M39.7109 13.7109C39.7109 6.15073 33.5602 0 26 0C18.4398 0 12.2891 6.15073 12.2891 13.7109C12.2891 21.2711 18.4398 27.4219 26 27.4219C33.5602 27.4219 39.7109 21.2711 39.7109 13.7109ZM26 24.375C20.1198 24.375 15.3359 19.5911 15.3359 13.7109C15.3359 7.83077 20.1198 3.04688 26 3.04688C31.8802 3.04688 36.6641 7.83077 36.6641 13.7109C36.6641 19.5911 31.8802 24.375 26 24.375Z" fill="#5ACAEE"/>
<path d="M24.4766 14.6034L21.4297 11.5565L19.2752 13.711L24.4766 18.9123L32.7248 10.6641L30.5703 8.50964L24.4766 14.6034Z" fill="#5ACAEE"/>
</svg>
