<svg width="31" height="31" viewBox="0 0 31 31" fill="none" xmlns="http://www.w3.org/2000/svg">
<path d="M26.4582 4.53783C20.4041 -1.51438 10.59 -1.51293 4.53783 4.54116C-1.51438 10.5952 -1.51293 20.4093 4.54116 26.4615C10.5952 32.5137 20.4093 32.5122 26.4615 26.4582C29.3681 23.5506 31.0006 19.6075 30.9997 15.4963C30.9988 11.3858 29.3652 7.44395 26.4582 4.53783ZM23.4739 21.591C23.4732 21.5916 23.4725 21.5924 23.4718 21.593V21.5879L22.6864 22.368C21.6708 23.3965 20.1916 23.8197 18.7856 23.484C17.3691 23.1049 16.0225 22.5014 14.7969 21.6964C13.6583 20.9687 12.6031 20.118 11.6504 19.1595C10.7739 18.2894 9.98644 17.334 9.2996 16.3075C8.54833 15.203 7.9537 13.9998 7.5326 12.7322C7.04986 11.243 7.44989 9.60887 8.56595 8.51103L9.4856 7.59139C9.74129 7.33455 10.1568 7.33364 10.4135 7.58933C10.4142 7.58999 10.4149 7.59066 10.4156 7.59139L13.3192 10.495C13.5761 10.7507 13.577 11.1662 13.3213 11.423C13.3206 11.4236 13.32 11.4243 13.3192 11.425L11.6142 13.13C11.125 13.6139 11.0635 14.3829 11.4696 14.9384C12.0863 15.7847 12.7687 16.5811 13.5104 17.3202C14.3375 18.1508 15.2365 18.9064 16.1971 19.5781C16.7521 19.9652 17.5046 19.9 17.9847 19.4231L19.6329 17.7491C19.8886 17.4923 20.3041 17.4913 20.5608 17.747C20.5615 17.7477 20.5622 17.7484 20.5629 17.7491L23.4717 20.6631C23.7286 20.9187 23.7295 21.3341 23.4739 21.591Z" fill="#5ACAEE"/>
</svg>
