<svg width="52" height="52" viewBox="0 0 52 52" fill="none" xmlns="http://www.w3.org/2000/svg">
<path d="M32.0938 33.5156C32.0938 30.1555 29.3601 27.4219 26 27.4219C22.6399 27.4219 19.9062 30.1555 19.9062 33.5156C19.9062 36.8757 22.6399 39.6094 26 39.6094C29.3601 39.6094 32.0938 36.8757 32.0938 33.5156ZM26 36.5625C24.32 36.5625 22.9531 35.1957 22.9531 33.5156C22.9531 31.8356 24.32 30.4688 26 30.4688C27.68 30.4688 29.0469 31.8356 29.0469 33.5156C29.0469 35.1957 27.68 36.5625 26 36.5625Z" fill="#5ACAEE"/>
<path d="M47.3281 33.5156C47.3281 30.1555 44.5945 27.4219 41.2344 27.4219C37.8743 27.4219 35.1406 30.1555 35.1406 33.5156C35.1406 36.8757 37.8743 39.6094 41.2344 39.6094C44.5945 39.6094 47.3281 36.8757 47.3281 33.5156ZM41.2344 36.5625C39.5543 36.5625 38.1875 35.1957 38.1875 33.5156C38.1875 31.8356 39.5543 30.4688 41.2344 30.4688C42.9144 30.4688 44.2812 31.8356 44.2812 33.5156C44.2812 35.1957 42.9144 36.5625 41.2344 36.5625Z" fill="#5ACAEE"/>
<path d="M47.4297 39.6094H4.57031C2.05024 39.6094 0 41.6596 0 44.1797V52H52V44.1797C52 41.6596 49.9498 39.6094 47.4297 39.6094ZM3.04688 48.9531V44.1797C3.04688 43.3397 3.73029 42.6562 4.57031 42.6562H15.598C15.4289 43.1331 15.3359 43.6457 15.3359 44.1797V48.9531H3.04688ZM33.6172 48.9531H18.3828V44.1797C18.3828 43.3397 19.0662 42.6562 19.9062 42.6562H24.4766V45.7031H27.5234V42.6562H32.0938C32.9338 42.6562 33.6172 43.3397 33.6172 44.1797V48.9531ZM48.9531 48.9531H36.6641V44.1797C36.6641 43.6457 36.5711 43.1331 36.402 42.6562H47.4297C48.2697 42.6562 48.9531 43.3397 48.9531 44.1797V48.9531Z" fill="#5ACAEE"/>
<path d="M16.8594 33.5156C16.8594 30.1555 14.1257 27.4219 10.7656 27.4219C7.40553 27.4219 4.67188 30.1555 4.67188 33.5156C4.67188 36.8757 7.40553 39.6094 10.7656 39.6094C14.1257 39.6094 16.8594 36.8757 16.8594 33.5156ZM10.7656 36.5625C9.08558 36.5625 7.71875 35.1957 7.71875 33.5156C7.71875 31.8356 9.08558 30.4688 10.7656 30.4688C12.4457 30.4688 13.8125 31.8356 13.8125 33.5156C13.8125 35.1957 12.4457 36.5625 10.7656 36.5625Z" fill="#5ACAEE"/>
<g clip-path="url(#clip0_11_143)">
<path d="M34.2079 12.036L33.4208 6.52562C33.3561 6.07385 32.8008 5.88611 32.476 6.21089L31.3296 7.35735C29.8553 6.46802 28.1816 6 26.4606 6C21.285 6 17.1298 10.0509 17.0004 15.2221C16.9934 15.5048 17.1988 15.7472 17.4782 15.7874L19.7026 16.1054C20.0342 16.1538 20.3427 15.8934 20.3381 15.5466C20.292 12.1337 23.0485 9.33984 26.4606 9.33984C27.2868 9.33984 28.1033 9.5078 28.8579 9.82906L27.7528 10.9342C27.43 11.2569 27.6132 11.8139 28.0675 11.8789L33.5779 12.6661C33.941 12.7208 34.26 12.405 34.2079 12.036Z" fill="#5ACAEE"/>
<path d="M35.5219 15.2555L33.2992 14.938C33.012 14.9016 32.6637 15.1477 32.6637 15.5371C32.6637 18.9133 29.9169 21.6601 26.5407 21.6601C25.7188 21.6601 24.9061 21.4938 24.1543 21.1758L25.2241 20.106C25.5469 19.7832 25.3637 19.2263 24.9094 19.1612L19.399 18.3735C19.0371 18.3218 18.7165 18.6322 18.7689 19.0036L19.556 24.514C19.6208 24.9663 20.1756 25.1528 20.5008 24.8288L21.675 23.6551C23.1421 24.5363 24.8148 25 26.5407 25C31.6912 25 35.8459 20.9692 35.9998 15.8235C36.0079 15.5403 35.8024 15.2957 35.5219 15.2555Z" fill="#5ACAEE"/>
</g>
<defs>
<clipPath id="clip0_11_143">
<rect width="19" height="19" fill="white" transform="translate(17 6)"/>
</clipPath>
</defs>
</svg>
